<?xml version="1.0" encoding="UTF-8"?>
<svg id="Vrstva_1" data-name="Vrstva 1" xmlns="http://www.w3.org/2000/svg" viewBox="0 0 80 80" style="transform: scale(2)">
  <defs>
    <style>
      .cls-1 {
        fill: #f6b200;
      }
    </style>
  </defs>
  <path class="cls-1" d="m47.54,32.21l.31.44c-1.25.94-2.65,2.4-4.18,4.36s-2.71,3.8-3.52,5.5l-.65.44c-.54.38-.91.65-1.1.83-.08-.28-.24-.73-.5-1.35l-.25-.57c-.35-.82-.68-1.43-.98-1.82-.3-.39-.64-.65-1.02-.78.63-.67,1.21-1,1.74-1,.45,0,.95.61,1.5,1.84l.27.62c.99-1.67,2.26-3.29,3.81-4.87s3.07-2.79,4.55-3.63Z"/>
</svg>